<svg xmlns="http://www.w3.org/2000/svg" version="1.1" xmlns:xlink="http://www.w3.org/1999/xlink" xmlns:svgjs="http://svgjs.dev/svgjs" width="308.7612359841165" height="304.915625" viewBox="0 0 2000 2166"><g transform="matrix(1,0,0,1,-1.2121212121212466,0.4010101010103426)"><svg viewBox="0 0 396 429" data-background-color="#b19dd0" preserveAspectRatio="xMidYMid meet" height="2166" width="2000" xmlns="http://www.w3.org/2000/svg" xmlns:xlink="http://www.w3.org/1999/xlink"><g id="tight-bounds" transform="matrix(1,0,0,1,0.2400000000000091,90.89999999999995)"><svg viewBox="0 0 395.52 247.2" height="247.2" width="395.52"><g><svg></svg></g><g><svg viewBox="0 0 395.52 247.2" height="247.2" width="395.52"><g transform="matrix(1,0,0,1,150.6333997264022,47.215199999999996)"><svg viewBox="0 0 94.2532005471956 152.7696" height="152.7696" width="94.2532005471956"><g><svg viewBox="0 0 94.2532005471956 152.7696" height="152.7696" width="94.2532005471956"><g><svg viewBox="0 0 94.2532005471956 152.7696" height="152.7696" width="94.2532005471956"><g><svg viewBox="0 0 94.2532005471956 152.7696" height="152.7696" width="94.2532005471956"><g id="textblocktransform"><svg viewBox="0 0 94.2532005471956 152.7696" height="152.7696" width="94.2532005471956" id="textblock"><g><svg viewBox="0 0 94.2532005471956 152.7696" height="152.7696" width="94.2532005471956"><g transform="matrix(1,0,0,1,0,0)"><svg width="94.2532005471956" viewBox="0.65 -36.55 22.55 36.55" height="152.7696" data-palette-color="#7a26c1"><path d="M11.95 0L11.95 0Q11.3 0 10.8-0.33 10.3-0.65 10.3-1.3L10.3-1.3 10.3-33.45 1.9-33.45Q1.3-33.45 0.98-33.93 0.65-34.4 0.65-35L0.65-35Q0.65-35.6 0.98-36.08 1.3-36.55 1.9-36.55L1.9-36.55 21.95-36.55Q22.6-36.55 22.9-36.1 23.2-35.65 23.2-35.05L23.2-35.05Q23.2-34.45 22.9-33.95 22.6-33.45 21.95-33.45L21.95-33.45 13.6-33.45 13.6-1.3Q13.6-0.65 13.08-0.33 12.55 0 11.95 0Z" opacity="1" transform="matrix(1,0,0,1,0,0)" fill="#000000" class="wordmark-text-0" data-fill-palette-color="primary" id="text-0"></path></svg></g></svg></g></svg></g></svg></g><g></g></svg></g></svg></g></svg></g><g><path d="M95.662 11.15A47.127 47.127 0 0 1 299.858 11.15L286.082 11.15A33.35 33.35 0 0 0 109.438 11.15L95.662 11.15M95.662 236.05A47.127 47.127 0 0 0 299.858 236.05L286.082 236.05A33.35 33.35 0 0 1 109.438 236.05L95.662 236.05" fill="#000000" stroke="transparent" data-fill-palette-color="tertiary"></path></g></svg></g><defs></defs></svg><rect width="395.52" height="247.2" fill="none" stroke="none" visibility="hidden"></rect></g></svg></g></svg>