<svg xmlns="http://www.w3.org/2000/svg" version="1.1" xmlns:xlink="http://www.w3.org/1999/xlink" xmlns:svgjs="http://svgjs.dev/svgjs" viewBox="381.65 -10.68 1494.37 1269.3"><g transform="matrix(1,0,0,1,-1.2121212121212466,0.504858299595071)"><svg viewBox="0 0 396 247" data-background-color="#00784a" preserveAspectRatio="xMidYMid meet" height="1247" width="2000" xmlns="http://www.w3.org/2000/svg" xmlns:xlink="http://www.w3.org/1999/xlink"><g id="tight-bounds" transform="matrix(1,0,0,1,0.2400000000000091,-0.09999999999999432)"><svg viewBox="0 0 395.52 247.2" height="247.2" width="395.52"><g><svg></svg></g><g><svg viewBox="0 0 395.52 247.2" height="247.2" width="395.52"><g transform="matrix(1,0,0,1,75.54432,57.96781817925276)"><svg viewBox="0 0 244.43135999999998 131.26436364149447" height="131.26436364149447" width="244.43135999999998"><g><svg viewBox="0 0 244.43135999999998 131.26436364149447" height="131.26436364149447" width="244.43135999999998"><g><svg viewBox="0 0 244.43135999999998 131.26436364149447" height="131.26436364149447" width="244.43135999999998"><g><svg viewBox="0 0 244.43135999999998 131.26436364149447" height="131.26436364149447" width="244.43135999999998"><g id="textblocktransform"><svg viewBox="0 0 244.43135999999998 131.26436364149447" height="131.26436364149447" width="244.43135999999998" id="textblock"><g><svg viewBox="0 0 244.43135999999998 78.71353053471667" height="78.71353053471667" width="244.43135999999998"><g transform="matrix(1,0,0,1,0,0)"><svg width="244.43135999999998" viewBox="-0.85 -36 125.28999999999999 40.35" height="78.71353053471667" data-palette-color="#fffafe"><path d="M0.85 4.35L0.85 4.35Q-0.25 3.7-0.55 2.98-0.85 2.25-0.85 1.75L-0.85 1.75Q-0.85 0.35 0.18-2.05 1.2-4.45 2.93-7.53 4.65-10.6 6.75-13.9L6.75-13.9Q4.9-14.05 3.6-14.1 2.3-14.15 1.35-14.15L1.35-14.15-0.4-14.15Q0.15-15.6 1.53-16.18 2.9-16.75 4.8-16.75L4.8-16.75Q5.65-16.75 6.55-16.65 7.45-16.55 8.4-16.4L8.4-16.4Q10.95-20.25 13.63-23.88 16.3-27.5 18.63-30.33 20.95-33.15 22.5-34.6L22.5-34.6Q23.95-36 24.9-36L24.9-36Q25.45-36 26.13-35.58 26.8-35.15 27.55-34.4L27.55-34.4Q27.05-34 26.28-32.27 25.5-30.55 24.63-27.95 23.75-25.35 22.9-22.25 22.05-19.15 21.33-15.93 20.6-12.7 20.18-9.8 19.75-6.9 19.75-4.7L19.75-4.7Q19.75-2.8 20.18-1.75 20.6-0.7 21.6-0.7L21.6-0.7Q22.9-0.7 24.55-2.5 26.2-4.3 28.15-8.1L28.15-8.1 28.65-7.6Q27.15-3.6 24.83-1.05 22.5 1.5 20 1.5L20 1.5Q17.95 1.5 17.03-0.33 16.1-2.15 16.1-5.2L16.1-5.2Q16.1-6.8 16.32-8.7 16.55-10.6 16.95-12.65L16.95-12.65Q14.75-13 12.93-13.23 11.1-13.45 9.55-13.65L9.55-13.65Q7.2-9.3 4.98-4.7 2.75-0.1 0.85 4.35ZM17.3-14.4L17.3-14.4Q18.05-17.7 19.05-21.08 20.05-24.45 21.18-27.5 22.3-30.55 23.3-32.85L23.3-32.85Q21.75-31.9 19.73-29.48 17.7-27.05 15.45-23.58 13.2-20.1 10.85-15.95L10.85-15.95Q12.55-15.6 14.23-15.18 15.9-14.75 17.3-14.4ZM43.3 1L43.3 1Q41.55 1 40.67 0.1 39.8-0.8 39.8-2.2L39.8-2.2Q39.8-3.25 40.17-4.4 40.55-5.55 40.9-6.78 41.25-8 41.25-9.15L41.25-9.15Q41.25-10.55 40.67-11.08 40.1-11.6 39.25-11.6L39.25-11.6Q37.7-11.6 36.1-10.33 34.5-9.05 33-7.08 31.5-5.1 30.2-3 28.9-0.9 27.9 0.75L27.9 0.75Q27.1 0.75 26.37 0.48 25.65 0.2 25.25-0.35L25.25-0.35Q25.25-0.6 25.77-1.9 26.3-3.2 27-5.1 27.7-7 28.25-9 28.8-11 28.8-12.65L28.8-12.65Q29.1-13 29.75-13.35 30.4-13.7 31.1-13.7L31.1-13.7Q32.45-13.7 32.45-12.4L32.45-12.4Q32.45-11.6 32-9.73 31.55-7.85 30.85-5.8L30.85-5.8Q32.2-7.85 33.87-9.88 35.55-11.9 37.45-13.25 39.35-14.6 41.25-14.6L41.25-14.6Q43.2-14.6 44.07-13.2 44.95-11.8 44.95-10.1L44.95-10.1Q44.95-8.55 44.45-7.23 43.95-5.9 43.42-4.67 42.9-3.45 42.9-2.2L42.9-2.2Q42.9-1.15 43.32-0.73 43.75-0.3 44.4-0.3L44.4-0.3Q45.65-0.3 46.9-1.48 48.15-2.65 49.32-4.45 50.5-6.25 51.4-8.1L51.4-8.1 51.95-7.45Q50.9-5 49.6-3.1 48.3-1.2 46.75-0.1 45.2 1 43.3 1ZM59.8 4.35L59.8 4.35Q57.55 4.35 56.7 3.35 55.85 2.35 55.85 0.8L55.85 0.8Q55.85-0.65 56.45-2.65 57.05-4.65 57.7-6.5L57.7-6.5Q58.55-8.95 59.75-12.25 60.95-15.55 62.32-19.15 63.7-22.75 65.12-26.25 66.55-29.75 67.9-32.6L67.9-32.6Q64.45-32.55 62.12-32.45 59.8-32.35 57.95-32.18 56.1-32 53.9-31.6L53.9-31.6Q54.05-33.3 55.65-34.25 57.25-35.2 59.95-35.6 62.65-36 66.1-36L66.1-36Q69.55-36 72.27-35.73 75-35.45 77.4-35.2 79.8-34.95 82.2-34.9L82.2-34.9Q80.5-33.35 78.3-32.95 76.1-32.55 73.65-32.55L73.65-32.55Q73.1-32.55 72.5-32.58 71.9-32.6 71.3-32.6 70.7-32.6 70.1-32.6L70.1-32.6Q68.5-28.6 66.42-22.5 64.35-16.4 62.25-8.75L62.25-8.75Q61.55-6.1 60.97-4 60.4-1.9 60.07-0.15 59.75 1.6 59.75 3.25L59.75 3.25Q59.75 3.5 59.75 3.8 59.75 4.1 59.8 4.35ZM74.54 1.3L74.54 1.3Q72.59 1.3 71.64 0.08 70.69-1.15 70.69-2.9L70.69-2.9Q70.69-4.05 71.12-5.8 71.54-7.55 72.24-9.47 72.94-11.4 73.87-13.1 74.79-14.8 75.84-15.88 76.89-16.95 77.89-16.95L77.89-16.95Q78.34-16.95 78.67-16.68 78.99-16.4 78.99-15.85L78.99-15.85Q78.99-15.25 78.22-13.9 77.44-12.55 76.39-10.8 75.34-9.05 74.57-7.13 73.79-5.2 73.79-3.45L73.79-3.45Q73.79-1.65 74.39-1.05 74.99-0.45 76.24-0.45L76.24-0.45Q77.94-0.45 79.87-2.15 81.79-3.85 83.94-8.1L83.94-8.1 84.39-7.6Q82.94-3.3 80.22-1 77.49 1.3 74.54 1.3ZM80.54-21.6L80.54-21.6Q79.74-21.6 79.12-22 78.49-22.4 78.49-23.25L78.49-23.25Q78.49-24.3 79.72-25.08 80.94-25.85 82.14-25.85L82.14-25.85Q82.89-25.85 83.34-25.5 83.79-25.15 83.79-24.3L83.79-24.3Q83.79-23.35 82.77-22.48 81.74-21.6 80.54-21.6ZM88.39 2.2L88.39 2.2Q85.34 2.2 83.82 0.53 82.29-1.15 82.29-3.6L82.29-3.6Q82.29-5.85 83.42-8.35 84.54-10.85 86.42-13.05 88.29-15.25 90.54-16.63 92.79-18 94.99-18L94.99-18Q96.14-18 97.12-17.4 98.09-16.8 98.09-14.95L98.09-14.95Q98.09-13.05 96.97-11.38 95.84-9.7 94.02-8.4 92.19-7.1 90.02-6.28 87.84-5.45 85.69-5.25L85.69-5.25Q85.59-4.75 85.54-4.3 85.49-3.85 85.49-3.45L85.49-3.45Q85.49-2.7 85.67-1.95 85.84-1.2 86.29-0.58 86.74 0.05 87.52 0.4 88.29 0.75 89.44 0.75L89.44 0.75Q91.59 0.75 93.69-0.48 95.79-1.7 97.59-3.7 99.39-5.7 100.64-8.1L100.64-8.1 101.24-7.65Q99.89-4.65 97.82-2.45 95.74-0.25 93.32 0.98 90.89 2.2 88.39 2.2ZM85.94-6.2L85.94-6.2Q87.29-6.65 88.99-7.53 90.69-8.4 92.27-9.6 93.84-10.8 94.87-12.25 95.89-13.7 95.89-15.3L95.89-15.3Q95.89-15.85 95.69-16.15 95.49-16.45 94.84-16.45L94.84-16.45Q93.64-16.45 92.29-15.53 90.94-14.6 89.69-13.1 88.44-11.6 87.44-9.8 86.44-8 85.94-6.2ZM115.79 1L115.79 1Q114.04 1 113.16 0.1 112.29-0.8 112.29-2.2L112.29-2.2Q112.29-3.25 112.66-4.4 113.04-5.55 113.39-6.78 113.74-8 113.74-9.15L113.74-9.15Q113.74-10.55 113.16-11.08 112.59-11.6 111.74-11.6L111.74-11.6Q110.19-11.6 108.59-10.33 106.99-9.05 105.49-7.08 103.99-5.1 102.69-3 101.39-0.9 100.39 0.75L100.39 0.75Q99.59 0.75 98.86 0.48 98.14 0.2 97.74-0.35L97.74-0.35Q97.74-0.6 98.26-1.9 98.79-3.2 99.49-5.1 100.19-7 100.74-9 101.29-11 101.29-12.65L101.29-12.65Q101.59-13 102.24-13.35 102.89-13.7 103.59-13.7L103.59-13.7Q104.94-13.7 104.94-12.4L104.94-12.4Q104.94-11.6 104.49-9.73 104.04-7.85 103.34-5.8L103.34-5.8Q104.69-7.85 106.36-9.88 108.04-11.9 109.94-13.25 111.84-14.6 113.74-14.6L113.74-14.6Q115.69-14.6 116.56-13.2 117.44-11.8 117.44-10.1L117.44-10.1Q117.44-8.55 116.94-7.23 116.44-5.9 115.91-4.67 115.39-3.45 115.39-2.2L115.39-2.2Q115.39-1.15 115.81-0.73 116.24-0.3 116.89-0.3L116.89-0.3Q118.14-0.3 119.39-1.48 120.64-2.65 121.81-4.45 122.99-6.25 123.89-8.1L123.89-8.1 124.44-7.45Q123.39-5 122.09-3.1 120.79-1.2 119.24-0.1 117.69 1 115.79 1Z" opacity="1" transform="matrix(1,0,0,1,0,0)" fill="#fffafe" class="wordmark-text-0" data-fill-palette-color="primary" id="text-0"></path></svg></g></svg></g><g transform="matrix(1,0,0,1,0,97.29590596923043)"><svg viewBox="0 0 244.43135999999998 33.96845767226404" height="33.96845767226404" width="244.43135999999998"><g transform="matrix(1,0,0,1,0,0)"><svg width="244.43135999999998" viewBox="6.75 -41.65 436.1 56.1" height="33.96845767226404" data-palette-color="#fffafe"><path d="M39.5-27.55L39.5-27.55Q39.5-24.45 37.8-22.03 36.1-19.6 33.15-18L33.15-18Q35.05-16.7 36.18-14.83 37.3-12.95 37.3-10.7L37.3-10.7Q37.3-8 35.68-5.38 34.05-2.75 31.35-0.73 28.65 1.3 25.2 2.55 21.75 3.8 18.15 3.8L18.15 3.8Q14.25 3.8 11.33 2.33 8.4 0.85 6.75-1.85L6.75-1.85Q7.25-3.35 8.08-5.58 8.9-7.8 9.9-10.28 10.9-12.75 11.93-15.2 12.95-17.65 13.85-19.6L13.85-19.6Q15.75-23.85 17.25-26.65 18.75-29.45 20-31.1L20-31.1Q17.25-30.25 15-29.18 12.75-28.1 11.7-27.1L11.7-27.1Q11.25-27.4 10.78-28 10.3-28.6 9.88-29.33 9.45-30.05 9.18-30.8 8.9-31.55 8.85-32.15L8.85-32.15Q10.15-33.05 12.23-33.88 14.3-34.7 16.75-35.3 19.2-35.9 21.78-36.25 24.35-36.6 26.7-36.6L26.7-36.6Q32.7-36.6 36.1-34.2 39.5-31.8 39.5-27.55ZM20.45-15.6L20.45-15.6Q19.5-16.05 18.7-16.95L18.7-16.95Q17.55-14.4 16.53-11.95 15.5-9.5 14.7-7.4 13.9-5.3 13.4-3.75 12.9-2.2 12.85-1.5L12.85-1.5Q13.55-1.1 14.53-0.9 15.5-0.7 16.95-0.7L16.95-0.7Q20.35-0.7 23.45-1.65 26.55-2.6 28.9-4.23 31.25-5.85 32.65-7.95 34.05-10.05 34.05-12.35L34.05-12.35Q34.05-15.65 31.2-17.1L31.2-17.1Q27.3-15.5 22.4-15.5L22.4-15.5Q21.7-15.5 21.33-15.5 20.95-15.5 20.45-15.6ZM30.15-32.95L30.15-32.95Q29.1-32.95 27.93-32.83 26.75-32.7 25.45-32.45L25.45-32.45Q25.65-32.25 25.78-32.02 25.9-31.8 26-31.55L26-31.55Q25.55-30.95 24.9-29.8 24.25-28.65 23.45-27.13 22.65-25.6 21.78-23.75 20.9-21.9 20-19.95L20-19.95Q20.85-20.15 22.08-20.28 23.3-20.4 24.5-20.4L24.5-20.4Q25.15-20.4 25.78-20.35 26.4-20.3 27-20.2L27-20.2Q29.4-20.6 31.33-21.38 33.25-22.15 34.65-23.18 36.05-24.2 36.8-25.45 37.55-26.7 37.55-28.1L37.55-28.1Q37.55-30.5 35.65-31.73 33.75-32.95 30.15-32.95ZM58.45-20.7L58.45-20.7Q58.25-17.6 57.35-15.38 56.45-13.15 54.77-11.48 53.1-9.8 50.7-8.45 48.3-7.1 45.1-5.85L45.1-5.85Q45.1-5.55 45.07-5.23 45.05-4.9 45.05-4.55L45.05-4.55Q45.05-3.9 45.15-3.2 45.25-2.5 45.5-1.9 45.75-1.3 46.2-0.93 46.65-0.55 47.35-0.55L47.35-0.55Q48.7-0.55 50-1.15 51.3-1.75 52.47-2.63 53.65-3.5 54.67-4.53 55.7-5.55 56.5-6.4L56.5-6.4Q57-5.95 57.35-5.55L57.35-5.55Q55.1-2.55 52.42-0.58 49.75 1.4 47.35 1.95L47.35 1.95Q43.9 1.55 41.97-0.58 40.05-2.7 40.05-5.7L40.05-5.7Q40.05-7.75 40.62-9.88 41.2-12 42.22-13.98 43.25-15.95 44.62-17.7 46-19.45 47.57-20.75 49.15-22.05 50.82-22.8 52.5-23.55 54.15-23.55L54.15-23.55Q56.45-23.25 58.45-20.7ZM55-19.05L55-19.05Q53.65-18.85 52.2-17.95 50.75-17.05 49.47-15.55 48.2-14.05 47.15-12.05 46.1-10.05 45.5-7.75L45.5-7.75Q49.5-9.75 52.15-12.68 54.8-15.6 55-19.05ZM83.54-23.35L83.54-23.35Q84.54-23.35 85.84-22.75 87.14-22.15 88.14-21.2L88.14-21.2Q87.89-23.2 87.52-24.98 87.14-26.75 86.42-28.65 85.69-30.55 84.49-32.8 83.29-35.05 81.49-37.95L81.49-37.95Q81.64-38.4 82.17-39 82.69-39.6 83.37-40.13 84.04-40.65 84.77-41.05 85.49-41.45 86.14-41.55L86.14-41.55Q87.54-40 88.79-37.68 90.04-35.35 90.99-32.68 91.94-30 92.47-27.15 92.99-24.3 92.99-21.7L92.99-21.7Q92.99-19.1 92.42-16.35 91.84-13.6 90.82-10.98 89.79-8.35 88.44-6 87.09-3.65 85.52-1.8 83.94 0.05 82.24 1.23 80.54 2.4 78.84 2.7L78.84 2.7Q75.39 2.3 73.57 0.48 71.74-1.35 71.74-4.55L71.74-4.55Q71.74-6.25 72.27-8.25 72.79-10.25 73.67-12.23 74.54-14.2 75.72-16.07 76.89-17.95 78.22-19.45 79.54-20.95 80.89-22 82.24-23.05 83.54-23.35ZM78.44 0.7L78.44 0.7Q80.19 0.1 81.94-1.95 83.69-4 85.09-6.78 86.49-9.55 87.37-12.73 88.24-15.9 88.24-18.85L88.24-18.85Q88.24-19.7 88.24-19.9 88.24-20.1 88.19-20.3L88.19-20.3Q86.99-19.8 85.64-18.6 84.29-17.4 82.94-15.83 81.59-14.25 80.39-12.4 79.19-10.55 78.24-8.7 77.29-6.85 76.74-5.15 76.19-3.45 76.19-2.15L76.19-2.15Q76.19 0.35 78.44 0.7ZM94.34-3.35L94.34-3.35Q94.34-3.8 94.42-4.48 94.49-5.15 94.69-6.28 94.89-7.4 95.22-9 95.54-10.6 96.04-12.85L96.04-12.85Q96.14-13.35 96.49-14.45 96.84-15.55 97.42-16.78 97.99-18 98.82-19.15 99.64-20.3 100.79-20.85L100.79-20.85Q101.64-20.65 103.04-19.83 104.44-19 105.44-17.55L105.44-17.55Q104.29-16.25 103.52-14.95 102.74-13.65 102.12-12.25 101.49-10.85 100.97-9.35 100.44-7.85 99.79-6.2L99.79-6.2Q99.24-4.8 98.79-3.33 98.34-1.85 98.29-0.75L98.29-0.75Q98.29 0.15 98.27 0.53 98.24 0.9 97.99 0.9L97.99 0.9Q97.79 0.9 97.19 0.65 96.59 0.4 95.97-0.13 95.34-0.65 94.84-1.45 94.34-2.25 94.34-3.35ZM103.89-25.05L103.89-25.05Q103.89-25.35 104.04-25.95L104.04-25.95Q103.79-26.2 103.62-26.7 103.44-27.2 103.44-27.6L103.44-27.6Q103.44-28.05 103.57-28.83 103.69-29.6 103.89-30.5 104.09-31.4 104.39-32.38 104.69-33.35 104.99-34.15L104.99-34.15Q105.59-34.15 106.47-33.83 107.34-33.5 108.24-32.98 109.14-32.45 109.89-31.83 110.64-31.2 111.04-30.65L111.04-30.65Q110.49-30.1 109.59-29.13 108.69-28.15 107.84-27.08 106.99-26 106.29-25.05 105.59-24.1 105.39-23.7L105.39-23.7Q104.79-23.8 104.34-24.23 103.89-24.65 103.89-25.05ZM108.49 14.45L108.49 14.45Q107.24 13.95 106.99 12.55L106.99 12.55Q106.79 11.2 105.29 10.35L105.29 10.35Q105.69 7.8 106.19 5.2 106.69 2.6 107.46-0.73 108.24-4.05 109.41-8.47 110.59-12.9 112.39-19.2L112.39-19.2Q110.74-19.2 109.79-19.15 108.84-19.1 107.94-18.95L107.94-18.95Q107.74-19.15 107.61-19.5 107.49-19.85 107.49-20.15L107.49-20.15Q107.99-20.35 109.54-20.68 111.09-21 112.94-21.25L112.94-21.25Q114.14-25.05 115.69-28.08 117.24-31.1 119.04-33.25 120.84-35.4 122.84-36.55 124.84-37.7 126.89-37.7L126.89-37.7Q127.49-37.7 128.04-37.63 128.59-37.55 128.89-37.55L128.89-37.55Q129.34-37.9 130.09-38.18 130.84-38.45 131.39-38.45L131.39-38.45Q131.99-38.45 132.94-37.8L132.94-37.8Q132.54-37.1 132.09-35.9 131.64-34.7 131.34-33.55L131.34-33.55Q130.09-29.85 128.69-28.75L128.69-28.75Q128.14-28.75 128.09-30.2L128.09-30.2Q128.04-31.25 127.79-32.25L127.79-32.25Q127.59-32.7 127.51-33.05 127.44-33.4 127.44-33.95L127.44-33.95Q127.44-34.25 127.49-34.68 127.54-35.1 127.69-36.1L127.69-36.1Q126.84-36.1 125.81-35.05 124.79-34 123.66-32.08 122.54-30.15 121.39-27.5 120.24-24.85 119.19-21.65L119.19-21.65 123.39-21.8Q123.64-21.55 123.81-20.68 123.99-19.8 124.04-18.85L124.04-18.85 118.54-19.15Q116.64-13.5 114.99-8.35 113.34-3.2 112.04 1.15 110.74 5.5 109.81 8.93 108.89 12.35 108.49 14.45ZM125.59 14.45L125.59 14.45Q124.34 13.95 124.09 12.55L124.09 12.55Q123.89 11.2 122.39 10.35L122.39 10.35Q122.79 7.8 123.29 5.2 123.79 2.6 124.56-0.73 125.34-4.05 126.51-8.47 127.69-12.9 129.49-19.2L129.49-19.2Q127.84-19.2 126.89-19.15 125.94-19.1 125.04-18.95L125.04-18.95Q124.84-19.15 124.71-19.5 124.59-19.85 124.59-20.15L124.59-20.15Q125.09-20.35 126.64-20.68 128.19-21 130.04-21.25L130.04-21.25Q131.24-25.05 132.79-28.08 134.34-31.1 136.14-33.25 137.94-35.4 139.94-36.55 141.94-37.7 143.99-37.7L143.99-37.7Q144.59-37.7 145.14-37.63 145.69-37.55 145.99-37.55L145.99-37.55Q146.44-37.9 147.19-38.18 147.94-38.45 148.49-38.45L148.49-38.45Q149.09-38.45 150.04-37.8L150.04-37.8Q149.64-37.1 149.19-35.9 148.74-34.7 148.44-33.55L148.44-33.55Q147.19-29.85 145.79-28.75L145.79-28.75Q145.24-28.75 145.19-30.2L145.19-30.2Q145.14-31.25 144.89-32.25L144.89-32.25Q144.69-32.7 144.61-33.05 144.54-33.4 144.54-33.95L144.54-33.95Q144.54-34.25 144.59-34.68 144.64-35.1 144.79-36.1L144.79-36.1Q143.94-36.1 142.91-35.05 141.89-34 140.76-32.08 139.64-30.15 138.49-27.5 137.34-24.85 136.29-21.65L136.29-21.65 140.49-21.8Q140.74-21.55 140.91-20.68 141.09-19.8 141.14-18.85L141.14-18.85 135.64-19.15Q133.74-13.5 132.09-8.35 130.44-3.2 129.14 1.15 127.84 5.5 126.91 8.93 125.99 12.35 125.59 14.45ZM157.63-20.7L157.63-20.7Q157.43-17.6 156.53-15.38 155.63-13.15 153.96-11.48 152.28-9.8 149.88-8.45 147.48-7.1 144.28-5.85L144.28-5.85Q144.28-5.55 144.26-5.23 144.23-4.9 144.23-4.55L144.23-4.55Q144.23-3.9 144.33-3.2 144.43-2.5 144.68-1.9 144.93-1.3 145.38-0.93 145.83-0.55 146.53-0.55L146.53-0.55Q147.88-0.55 149.18-1.15 150.48-1.75 151.66-2.63 152.83-3.5 153.86-4.53 154.88-5.55 155.68-6.4L155.68-6.4Q156.18-5.95 156.53-5.55L156.53-5.55Q154.28-2.55 151.61-0.58 148.93 1.4 146.53 1.95L146.53 1.95Q143.08 1.55 141.16-0.58 139.23-2.7 139.23-5.7L139.23-5.7Q139.23-7.75 139.81-9.88 140.38-12 141.41-13.98 142.43-15.95 143.81-17.7 145.18-19.45 146.76-20.75 148.33-22.05 150.01-22.8 151.68-23.55 153.33-23.55L153.33-23.55Q155.63-23.25 157.63-20.7ZM154.18-19.05L154.18-19.05Q152.83-18.85 151.38-17.95 149.93-17.05 148.66-15.55 147.38-14.05 146.33-12.05 145.28-10.05 144.68-7.75L144.68-7.75Q148.68-9.75 151.33-12.68 153.98-15.6 154.18-19.05ZM158.73-1L158.73-1Q158.98-2.45 159.61-4.83 160.23-7.2 161.08-9.88 161.93-12.55 162.88-15.25 163.83-17.95 164.73-20.1L164.73-20.1Q165.38-21.65 165.88-22.53 166.38-23.4 166.98-24L166.98-24Q167.68-23.9 168.43-23.65 169.18-23.4 169.88-23.05 170.58-22.7 171.13-22.33 171.68-21.95 171.98-21.6L171.98-21.6Q170.63-20 169.61-17.95 168.58-15.9 167.53-12.7L167.53-12.7Q170.23-15.1 172.31-17.3 174.38-19.5 176.18-22.2L176.18-22.2Q176.48-22.45 177.23-22.45L177.23-22.45Q177.93-22.45 178.58-22.23 179.23-22 179.48-21.6L179.48-21.6Q178.58-19.2 178.58-16.85L178.58-16.85Q178.58-14.65 179.23-13.55L179.23-13.55Q179.18-13.25 178.56-12.4 177.93-11.55 177.18-10.8L177.18-10.8Q175.83-11.5 174.78-12.73 173.73-13.95 173.23-15.4L173.23-15.4Q170.88-13.75 169.23-12.18 167.58-10.6 166.41-8.68 165.23-6.75 164.41-4.25 163.58-1.75 162.83 1.7L162.83 1.7Q162.38 1.65 161.76 1.38 161.13 1.1 160.51 0.7 159.88 0.3 159.38-0.15 158.88-0.6 158.73-1ZM197.98-20.7L197.98-20.7Q197.78-17.6 196.88-15.38 195.98-13.15 194.3-11.48 192.63-9.8 190.23-8.45 187.83-7.1 184.63-5.85L184.63-5.85Q184.63-5.55 184.6-5.23 184.58-4.9 184.58-4.55L184.58-4.55Q184.58-3.9 184.68-3.2 184.78-2.5 185.03-1.9 185.28-1.3 185.73-0.93 186.18-0.55 186.88-0.55L186.88-0.55Q188.23-0.55 189.53-1.15 190.83-1.75 192-2.63 193.18-3.5 194.2-4.53 195.23-5.55 196.03-6.4L196.03-6.4Q196.53-5.95 196.88-5.55L196.88-5.55Q194.63-2.55 191.95-0.58 189.28 1.4 186.88 1.95L186.88 1.95Q183.43 1.55 181.5-0.58 179.58-2.7 179.58-5.7L179.58-5.7Q179.58-7.75 180.15-9.88 180.73-12 181.75-13.98 182.78-15.95 184.15-17.7 185.53-19.45 187.1-20.75 188.68-22.05 190.35-22.8 192.03-23.55 193.68-23.55L193.68-23.55Q195.98-23.25 197.98-20.7ZM194.53-19.05L194.53-19.05Q193.18-18.85 191.73-17.95 190.28-17.05 189-15.55 187.73-14.05 186.68-12.05 185.63-10.05 185.03-7.75L185.03-7.75Q189.03-9.75 191.68-12.68 194.33-15.6 194.53-19.05ZM208.38-24.25L208.38-24.25Q209.68-23.85 210.83-22.48 211.98-21.1 212.53-19.45L212.53-19.45Q211.98-18.1 210.83-16.2 209.68-14.3 208.53-12.33 207.38-10.35 206.45-8.58 205.53-6.8 205.38-5.65L205.38-5.65Q206.18-6.5 207.15-7.63 208.13-8.75 209.05-9.88 209.98-11 210.78-11.93 211.58-12.85 212.03-13.3L212.03-13.3Q212.98-14.3 214.28-15.63 215.58-16.95 217-18.13 218.43-19.3 219.88-20.13 221.33-20.95 222.53-20.95L222.53-20.95Q223.83-20.95 224.7-20.08 225.58-19.2 226.08-18.25L226.08-18.25Q226.08-18.15 225.7-17.98 225.33-17.8 224.63-17L224.63-17Q223.93-16.1 223.05-14.53 222.18-12.95 221.35-11.13 220.53-9.3 219.98-7.4 219.43-5.5 219.43-3.95L219.43-3.95Q219.43-2.7 219.75-2.35 220.08-2 220.68-2L220.68-2Q221.23-2 221.83-2.25 222.43-2.5 222.78-2.5L222.78-2.5Q222.98-2.4 223.1-2.08 223.23-1.75 223.23-1.5L223.23-1.5Q222.83-1.15 222.28-0.8 221.73-0.45 221.13-0.15 220.53 0.15 219.95 0.35 219.38 0.55 218.93 0.55L218.93 0.55Q217.48 0.55 216.55 0.13 215.63-0.3 215.1-1 214.58-1.7 214.38-2.68 214.18-3.65 214.18-4.75L214.18-4.75Q214.18-5.35 214.28-6.1 214.38-6.85 214.68-7.88 214.98-8.9 215.53-10.33 216.08-11.75 216.93-13.75L216.93-13.75Q216.83-13.75 215.58-13.05 214.33-12.35 212.88-10.9L212.88-10.9Q210.53-8.65 208.65-6.45 206.78-4.25 204.83-1.55L204.83-1.55Q203.73 0 202.9 1.07 202.08 2.15 201.48 2.5L201.48 2.5Q200.43 1.9 199.93 0.83 199.43-0.25 199.18-1.4L199.18-1.4Q199.18-2.35 199.45-3.8 199.73-5.25 200.2-7.03 200.68-8.8 201.38-10.75 202.08-12.7 202.93-14.65L202.93-14.65Q204.83-19.05 206.4-21.55 207.98-24.05 208.38-24.25ZM233.07-19.15L230.22-19.15Q229.97-19.45 229.77-20.43 229.57-21.4 229.57-22.1L229.57-22.1Q230.87-22 232.07-21.93 233.27-21.85 234.27-21.8L234.27-21.8Q235.02-23.3 235.9-24.78 236.77-26.25 237.6-27.48 238.42-28.7 239.15-29.55 239.87-30.4 240.27-30.65L240.27-30.65Q240.77-30.65 241.55-30.48 242.32-30.3 243.12-30.03 243.92-29.75 244.57-29.45 245.22-29.15 245.47-28.85L245.47-28.85Q243.97-26.95 242.9-25.33 241.82-23.7 240.57-21.6L240.57-21.6Q241.57-21.6 242.6-21.65 243.62-21.7 244.67-21.8L244.67-21.8Q244.92-21.55 245.07-21.18 245.22-20.8 245.22-20.4L245.22-20.4Q242.77-19.5 239.27-19.4L239.27-19.4Q238.02-17 237.05-14.63 236.07-12.25 235.4-10.05 234.72-7.85 234.35-5.9 233.97-3.95 233.97-2.4L233.97-2.4Q233.97-0.2 235.62 0.05L235.62 0.05Q237.12-0.15 238.47-0.7 239.82-1.25 240.87-2.1L240.87-2.1Q241.17-1.65 241.22-1.35L241.22-1.35Q240.92-0.9 240.2-0.3 239.47 0.3 238.62 0.88 237.77 1.45 236.97 1.85 236.17 2.25 235.77 2.3L235.77 2.3Q234.52 2.25 233.27 1.75 232.02 1.25 231 0.5 229.97-0.25 229.32-1.18 228.67-2.1 228.67-3L228.67-3Q228.67-4.2 229-6.03 229.32-7.85 229.92-10 230.52-12.15 231.32-14.5 232.12-16.85 233.07-19.15L233.07-19.15ZM240.87 8.45L240.87 8.45Q240.57 8.2 240.32 7.63 240.07 7.05 240.07 6.55L240.07 6.55Q242.57 4.4 243.65 2.45 244.72 0.5 244.72-1.8L244.72-1.8Q244.72-3.3 244.6-4.38 244.47-5.45 244.12-6.85L244.12-6.85Q245.37-6.75 246.6-6.43 247.82-6.1 248.8-5.63 249.77-5.15 250.42-4.53 251.07-3.9 251.22-3.3L251.22-3.3Q248.87 5 240.87 8.45ZM273.37 0.35L273.37 0.35Q275.67-1.2 277.87-3.63 280.07-6.05 281.87-8.88 283.67-11.7 284.92-14.75 286.17-17.8 286.62-20.6L286.62-20.6Q286.62-21.2 285.97-21.4L285.97-21.4Q285.27-21.4 284.04-20.18 282.82-18.95 281.34-17.05 279.87-15.15 278.34-12.8 276.82-10.45 275.57-8.13 274.32-5.8 273.44-3.78 272.57-1.75 272.47-0.5L272.47-0.5Q271.97-0.5 271.62-1.5L271.62-1.5Q271.52-1.75 271.27-2.02 271.02-2.3 270.47-2.7L270.47-2.7Q270.22-2.9 269.97-3.18 269.72-3.45 269.62-3.65L269.62-3.65Q269.42-4.05 269.42-4.95L269.42-4.95Q269.42-7.9 270.17-11.6 270.92-15.3 272.14-19.15 273.37-23 275.02-26.73 276.67-30.45 278.44-33.55 280.22-36.65 282.02-38.8 283.82-40.95 285.42-41.65L285.42-41.65Q285.92-41.5 286.62-41.15 287.32-40.8 288.02-40.35 288.72-39.9 289.34-39.45 289.97-39 290.27-38.65L290.27-38.65Q284.77-34.2 280.74-27.23 276.72-20.25 274.17-10.75L274.17-10.75Q275.57-13.35 277.32-15.78 279.07-18.2 280.79-20.05 282.52-21.9 284.09-23 285.67-24.1 286.72-24.1L286.72-24.1Q287.52-23.9 288.27-23.4 289.02-22.9 289.62-22.18 290.22-21.45 290.62-20.63 291.02-19.8 291.12-18.9L291.12-18.9Q291.07-16.8 290.39-14.43 289.72-12.05 288.59-9.75 287.47-7.45 286.04-5.35 284.62-3.25 283.04-1.68 281.47-0.1 279.89 0.85 278.32 1.8 276.92 1.8L276.92 1.8Q276.32 1.8 275.69 1.68 275.07 1.55 274.54 1.33 274.02 1.1 273.69 0.85 273.37 0.6 273.37 0.35ZM310.26-20.7L310.26-20.7Q310.06-17.6 309.16-15.38 308.26-13.15 306.59-11.48 304.91-9.8 302.51-8.45 300.11-7.1 296.91-5.85L296.91-5.85Q296.91-5.55 296.89-5.23 296.86-4.9 296.86-4.55L296.86-4.55Q296.86-3.9 296.96-3.2 297.06-2.5 297.31-1.9 297.56-1.3 298.01-0.93 298.46-0.55 299.16-0.55L299.16-0.55Q300.51-0.55 301.81-1.15 303.11-1.75 304.29-2.63 305.46-3.5 306.49-4.53 307.51-5.55 308.31-6.4L308.31-6.4Q308.81-5.95 309.16-5.55L309.16-5.55Q306.91-2.55 304.24-0.58 301.56 1.4 299.16 1.95L299.16 1.95Q295.71 1.55 293.79-0.58 291.86-2.7 291.86-5.7L291.86-5.7Q291.86-7.75 292.44-9.88 293.01-12 294.04-13.98 295.06-15.95 296.44-17.7 297.81-19.45 299.39-20.75 300.96-22.05 302.64-22.8 304.31-23.55 305.96-23.55L305.96-23.55Q308.26-23.25 310.26-20.7ZM306.81-19.05L306.81-19.05Q305.46-18.85 304.01-17.95 302.56-17.05 301.29-15.55 300.01-14.05 298.96-12.05 297.91-10.05 297.31-7.75L297.31-7.75Q301.31-9.75 303.96-12.68 306.61-15.6 306.81-19.05ZM329.06 0.35L329.06 0.35Q331.36-1.2 333.56-3.63 335.76-6.05 337.56-8.88 339.36-11.7 340.61-14.75 341.86-17.8 342.31-20.6L342.31-20.6Q342.31-21.2 341.66-21.4L341.66-21.4Q340.96-21.4 339.73-20.18 338.51-18.95 337.03-17.05 335.56-15.15 334.03-12.8 332.51-10.45 331.26-8.13 330.01-5.8 329.13-3.78 328.26-1.75 328.16-0.5L328.16-0.5Q327.66-0.5 327.31-1.5L327.31-1.5Q327.21-1.75 326.96-2.02 326.71-2.3 326.16-2.7L326.16-2.7Q325.91-2.9 325.66-3.18 325.41-3.45 325.31-3.65L325.31-3.65Q325.11-4.05 325.11-4.95L325.11-4.95Q325.11-7.9 325.86-11.6 326.61-15.3 327.83-19.15 329.06-23 330.71-26.73 332.36-30.45 334.13-33.55 335.91-36.65 337.71-38.8 339.51-40.95 341.11-41.65L341.11-41.65Q341.61-41.5 342.31-41.15 343.01-40.8 343.71-40.35 344.41-39.9 345.03-39.45 345.66-39 345.96-38.65L345.96-38.65Q340.46-34.2 336.43-27.23 332.41-20.25 329.86-10.75L329.86-10.75Q331.26-13.35 333.01-15.78 334.76-18.2 336.48-20.05 338.21-21.9 339.78-23 341.36-24.1 342.41-24.1L342.41-24.1Q343.21-23.9 343.96-23.4 344.71-22.9 345.31-22.18 345.91-21.45 346.31-20.63 346.71-19.8 346.81-18.9L346.81-18.9Q346.76-16.8 346.08-14.43 345.41-12.05 344.28-9.75 343.16-7.45 341.73-5.35 340.31-3.25 338.73-1.68 337.16-0.1 335.58 0.85 334.01 1.8 332.61 1.8L332.61 1.8Q332.01 1.8 331.38 1.68 330.76 1.55 330.23 1.33 329.71 1.1 329.38 0.85 329.06 0.6 329.06 0.35ZM365.96-20.7L365.96-20.7Q365.76-17.6 364.86-15.38 363.96-13.15 362.28-11.48 360.61-9.8 358.21-8.45 355.81-7.1 352.61-5.85L352.61-5.85Q352.61-5.55 352.58-5.23 352.56-4.9 352.56-4.55L352.56-4.55Q352.56-3.9 352.66-3.2 352.76-2.5 353.01-1.9 353.26-1.3 353.71-0.93 354.16-0.55 354.86-0.55L354.86-0.55Q356.21-0.55 357.51-1.15 358.81-1.75 359.98-2.63 361.16-3.5 362.18-4.53 363.21-5.55 364.01-6.4L364.01-6.4Q364.51-5.95 364.86-5.55L364.86-5.55Q362.61-2.55 359.93-0.58 357.26 1.4 354.86 1.95L354.86 1.95Q351.41 1.55 349.48-0.58 347.56-2.7 347.56-5.7L347.56-5.7Q347.56-7.75 348.13-9.88 348.71-12 349.73-13.98 350.76-15.95 352.13-17.7 353.51-19.45 355.08-20.75 356.66-22.05 358.33-22.8 360.01-23.55 361.66-23.55L361.66-23.55Q363.96-23.25 365.96-20.7ZM362.51-19.05L362.51-19.05Q361.16-18.85 359.71-17.95 358.26-17.05 356.98-15.55 355.71-14.05 354.66-12.05 353.61-10.05 353.01-7.75L353.01-7.75Q357.01-9.75 359.66-12.68 362.31-15.6 362.51-19.05ZM373.7-19.15L370.85-19.15Q370.6-19.45 370.4-20.43 370.2-21.4 370.2-22.1L370.2-22.1Q371.5-22 372.7-21.93 373.9-21.85 374.9-21.8L374.9-21.8Q375.65-23.3 376.53-24.78 377.4-26.25 378.23-27.48 379.05-28.7 379.78-29.55 380.5-30.4 380.9-30.65L380.9-30.65Q381.4-30.65 382.18-30.48 382.95-30.3 383.75-30.03 384.55-29.75 385.2-29.45 385.85-29.15 386.1-28.85L386.1-28.85Q384.6-26.95 383.53-25.33 382.45-23.7 381.2-21.6L381.2-21.6Q382.2-21.6 383.23-21.65 384.25-21.7 385.3-21.8L385.3-21.8Q385.55-21.55 385.7-21.18 385.85-20.8 385.85-20.4L385.85-20.4Q383.4-19.5 379.9-19.4L379.9-19.4Q378.65-17 377.68-14.63 376.7-12.25 376.03-10.05 375.35-7.85 374.98-5.9 374.6-3.95 374.6-2.4L374.6-2.4Q374.6-0.2 376.25 0.05L376.25 0.05Q377.75-0.15 379.1-0.7 380.45-1.25 381.5-2.1L381.5-2.1Q381.8-1.65 381.85-1.35L381.85-1.35Q381.55-0.9 380.83-0.3 380.1 0.3 379.25 0.88 378.4 1.45 377.6 1.85 376.8 2.25 376.4 2.3L376.4 2.3Q375.15 2.25 373.9 1.75 372.65 1.25 371.63 0.5 370.6-0.25 369.95-1.18 369.3-2.1 369.3-3L369.3-3Q369.3-4.2 369.63-6.03 369.95-7.85 370.55-10 371.15-12.15 371.95-14.5 372.75-16.85 373.7-19.15L373.7-19.15ZM391.3-19.15L388.45-19.15Q388.2-19.45 388-20.43 387.8-21.4 387.8-22.1L387.8-22.1Q389.1-22 390.3-21.93 391.5-21.85 392.5-21.8L392.5-21.8Q393.25-23.3 394.13-24.78 395-26.25 395.83-27.48 396.65-28.7 397.38-29.55 398.1-30.4 398.5-30.65L398.5-30.65Q399-30.65 399.78-30.48 400.55-30.3 401.35-30.03 402.15-29.75 402.8-29.45 403.45-29.15 403.7-28.85L403.7-28.85Q402.2-26.95 401.13-25.33 400.05-23.7 398.8-21.6L398.8-21.6Q399.8-21.6 400.83-21.65 401.85-21.7 402.9-21.8L402.9-21.8Q403.15-21.55 403.3-21.18 403.45-20.8 403.45-20.4L403.45-20.4Q401-19.5 397.5-19.4L397.5-19.4Q396.25-17 395.28-14.63 394.3-12.25 393.63-10.05 392.95-7.85 392.58-5.9 392.2-3.95 392.2-2.4L392.2-2.4Q392.2-0.2 393.85 0.05L393.85 0.05Q395.35-0.15 396.7-0.7 398.05-1.25 399.1-2.1L399.1-2.1Q399.4-1.65 399.45-1.35L399.45-1.35Q399.15-0.9 398.43-0.3 397.7 0.3 396.85 0.88 396 1.45 395.2 1.85 394.4 2.25 394 2.3L394 2.3Q392.75 2.25 391.5 1.75 390.25 1.25 389.23 0.5 388.2-0.25 387.55-1.18 386.9-2.1 386.9-3L386.9-3Q386.9-4.2 387.23-6.03 387.55-7.85 388.15-10 388.75-12.15 389.55-14.5 390.35-16.85 391.3-19.15L391.3-19.15ZM421-20.7L421-20.7Q420.8-17.6 419.9-15.38 419-13.15 417.32-11.48 415.65-9.8 413.25-8.45 410.85-7.1 407.65-5.85L407.65-5.85Q407.65-5.55 407.62-5.23 407.6-4.9 407.6-4.55L407.6-4.55Q407.6-3.9 407.7-3.2 407.8-2.5 408.05-1.9 408.3-1.3 408.75-0.93 409.2-0.55 409.9-0.55L409.9-0.55Q411.25-0.55 412.55-1.15 413.85-1.75 415.02-2.63 416.2-3.5 417.22-4.53 418.25-5.55 419.05-6.4L419.05-6.4Q419.55-5.95 419.9-5.55L419.9-5.55Q417.65-2.55 414.97-0.58 412.3 1.4 409.9 1.95L409.9 1.95Q406.45 1.55 404.52-0.58 402.6-2.7 402.6-5.7L402.6-5.7Q402.6-7.75 403.17-9.88 403.75-12 404.77-13.98 405.8-15.95 407.17-17.7 408.55-19.45 410.12-20.75 411.7-22.05 413.37-22.8 415.05-23.55 416.7-23.55L416.7-23.55Q419-23.25 421-20.7ZM417.55-19.05L417.55-19.05Q416.2-18.85 414.75-17.95 413.3-17.05 412.02-15.55 410.75-14.05 409.7-12.05 408.65-10.05 408.05-7.75L408.05-7.75Q412.05-9.75 414.7-12.68 417.35-15.6 417.55-19.05ZM422.1-1L422.1-1Q422.35-2.45 422.97-4.83 423.6-7.2 424.45-9.88 425.3-12.55 426.25-15.25 427.2-17.95 428.1-20.1L428.1-20.1Q428.75-21.65 429.25-22.53 429.75-23.4 430.35-24L430.35-24Q431.05-23.9 431.8-23.65 432.55-23.4 433.25-23.05 433.95-22.7 434.5-22.33 435.05-21.95 435.35-21.6L435.35-21.6Q434-20 432.97-17.95 431.95-15.9 430.9-12.7L430.9-12.7Q433.6-15.1 435.67-17.3 437.75-19.5 439.55-22.2L439.55-22.2Q439.85-22.45 440.6-22.45L440.6-22.45Q441.3-22.45 441.95-22.23 442.6-22 442.85-21.6L442.85-21.6Q441.95-19.2 441.95-16.85L441.95-16.85Q441.95-14.65 442.6-13.55L442.6-13.55Q442.55-13.25 441.92-12.4 441.3-11.55 440.55-10.8L440.55-10.8Q439.2-11.5 438.15-12.73 437.1-13.95 436.6-15.4L436.6-15.4Q434.25-13.75 432.6-12.18 430.95-10.6 429.77-8.68 428.6-6.75 427.77-4.25 426.95-1.75 426.2 1.7L426.2 1.7Q425.75 1.65 425.12 1.38 424.5 1.1 423.87 0.7 423.25 0.3 422.75-0.15 422.25-0.6 422.1-1Z" opacity="1" transform="matrix(1,0,0,1,0,0)" fill="#fffafe" class="slogan-text-1" data-fill-palette-color="secondary" id="text-1"></path></svg></g></svg></g></svg></g></svg></g></svg></g></svg></g></svg></g><g><path d="M245.816 0c68.262 0 123.6 55.338 123.6 123.6 0 68.262-55.338 123.6-123.6 123.6-40.094 0-75.729-19.09-98.311-48.677h4.504c21.999 27.508 55.845 45.127 93.807 45.128 66.302 0 120.051-53.749 120.05-120.051 0-66.302-53.749-120.051-120.05-120.051-37.962 0-71.808 17.62-93.807 45.128l-4.504 0c22.582-29.587 58.217-48.677 98.311-48.677z" fill="#fffafe" stroke="transparent" data-fill-palette-color="tertiary"></path></g></svg></g><defs></defs></svg><rect width="395.52" height="247.2" fill="none" stroke="none" visibility="hidden"></rect></g></svg></g></svg>